<svg width="368" height="236" viewBox="0 0 368 236" fill="none" xmlns="http://www.w3.org/2000/svg">
<g filter="url(#filter0_di_10_795)">
<path d="M36.1496 130.91H-10V246.5H397V4.05663H384.235L380.799 0.5L376.38 12.9482H367.052L363.124 0.5L354.778 8.79879H347.414L341.031 12.9482L334.649 21.8398H326.794L319.429 57.9988H291.936H282.117L276.226 42.5867L267.879 50.8855L263.461 42.5867L258.551 50.8855L254.624 47.3289L251.187 50.8855H246.277L240.877 65.112H234.004L223.694 89.4157L218.293 98.3072L212.893 107.792L207.492 98.3072H192.764L185.89 89.4157L181.472 84.0807H165.761L154.96 98.3072H148.087H132.376L123.048 117.869L119.612 103.049H74.4439L67.5706 107.792L63.6429 98.3072L56.7696 103.049L51.3691 113.719L45.9686 119.054L41.0591 98.3072L36.1496 130.91Z" fill="url(#paint0_linear_10_795)" shape-rendering="crispEdges"/>
<path d="M36.1496 130.91H-10V246.5H397V4.05663H384.235L380.799 0.5L376.38 12.9482H367.052L363.124 0.5L354.778 8.79879H347.414L341.031 12.9482L334.649 21.8398H326.794L319.429 57.9988H291.936H282.117L276.226 42.5867L267.879 50.8855L263.461 42.5867L258.551 50.8855L254.624 47.3289L251.187 50.8855H246.277L240.877 65.112H234.004L223.694 89.4157L218.293 98.3072L212.893 107.792L207.492 98.3072H192.764L185.89 89.4157L181.472 84.0807H165.761L154.96 98.3072H148.087H132.376L123.048 117.869L119.612 103.049H74.4439L67.5706 107.792L63.6429 98.3072L56.7696 103.049L51.3691 113.719L45.9686 119.054L41.0591 98.3072L36.1496 130.91Z" stroke="#0CC61F" stroke-width="2" shape-rendering="crispEdges"/>
</g>
<defs>
<filter id="filter0_di_10_795" x="-48" y="-31.3672" width="477" height="316.867" filterUnits="userSpaceOnUse" color-interpolation-filters="sRGB">
<feFlood flood-opacity="0" result="BackgroundImageFix"/>
<feColorMatrix in="SourceAlpha" type="matrix" values="0 0 0 0 0 0 0 0 0 0 0 0 0 0 0 0 0 0 127 0" result="hardAlpha"/>
<feOffset dx="-3" dy="4"/>
<feGaussianBlur stdDeviation="17"/>
<feComposite in2="hardAlpha" operator="out"/>
<feColorMatrix type="matrix" values="0 0 0 0 0.0117647 0 0 0 0 0.870588 0 0 0 0 0.0823529 0 0 0 1 0"/>
<feBlend mode="normal" in2="BackgroundImageFix" result="effect1_dropShadow_10_795"/>
<feBlend mode="normal" in="SourceGraphic" in2="effect1_dropShadow_10_795" result="shape"/>
<feColorMatrix in="SourceAlpha" type="matrix" values="0 0 0 0 0 0 0 0 0 0 0 0 0 0 0 0 0 0 127 0" result="hardAlpha"/>
<feOffset dx="-3" dy="4"/>
<feGaussianBlur stdDeviation="10.5"/>
<feComposite in2="hardAlpha" operator="arithmetic" k2="-1" k3="1"/>
<feColorMatrix type="matrix" values="0 0 0 0 0.0108854 0 0 0 0 0.870833 0 0 0 0 0.0812447 0 0 0 0.5 0"/>
<feBlend mode="normal" in2="shape" result="effect2_innerShadow_10_795"/>
</filter>
<linearGradient id="paint0_linear_10_795" x1="204.5" y1="-241.38" x2="219.991" y2="217.71" gradientUnits="userSpaceOnUse">
<stop stop-color="#0CC61F" stop-opacity="0.4"/>
<stop offset="1" stop-color="#EDF6EA"/>
</linearGradient>
</defs>
</svg>
