<svg width="66" height="66" viewBox="0 0 66 66" fill="none" xmlns="http://www.w3.org/2000/svg">
<circle cx="33.0665" cy="33.2337" r="13.4991" stroke="#00860B"/>
<path d="M28.0124 29.1337H28.7724L31.6724 36.2337H30.7124L29.8724 34.1537H26.8924L26.0624 36.2337H25.1024L28.0124 29.1337ZM29.6724 33.4537L28.3924 30.1737L27.0724 33.4537H29.6724ZM32.62 36.2337V29.1337H35.58C35.8934 29.1337 36.18 29.2004 36.44 29.3337C36.7 29.4604 36.9267 29.6337 37.12 29.8537C37.3134 30.0671 37.4634 30.3104 37.57 30.5837C37.6767 30.8504 37.73 31.1237 37.73 31.4037C37.73 31.7904 37.6434 32.1604 37.47 32.5137C37.2967 32.8604 37.0534 33.1437 36.74 33.3637C36.4267 33.5771 36.06 33.6837 35.64 33.6837H33.52V36.2337H32.62ZM33.52 32.8837H35.59C35.8367 32.8837 36.05 32.8171 36.23 32.6837C36.4167 32.5504 36.56 32.3704 36.66 32.1437C36.7667 31.9171 36.82 31.6704 36.82 31.4037C36.82 31.1237 36.76 30.8737 36.64 30.6537C36.52 30.4271 36.3634 30.2504 36.17 30.1237C35.9767 29.9971 35.7634 29.9337 35.53 29.9337H33.52V32.8837ZM38.8505 36.2337V29.1337H39.7505V36.2337H38.8505Z" fill="#00860B"/>
<path d="M42.8662 23.0677L44.5328 20.1346H47.8326" stroke="#00860B"/>
<circle cx="50.3977" cy="20.1679" r="2.09983" stroke="#00860B"/>
<path d="M23.1333 23.401L21.4667 20.4679H18.167" stroke="#00860B"/>
<circle r="2.09983" transform="matrix(-1 0 0 1 15.6023 20.5012)" stroke="#00860B"/>
<path d="M23.1333 43.0331L21.4667 45.9662H18.167" stroke="#00860B"/>
<circle cx="15.6023" cy="45.9329" r="2.09983" transform="rotate(-180 15.6023 45.9329)" stroke="#00860B"/>
<path d="M42.8662 43.0331L44.5328 45.9662H47.8326" stroke="#00860B"/>
<circle r="2.09983" transform="matrix(1 0 0 -1 50.3977 45.9329)" stroke="#00860B"/>
<line x1="31.5024" y1="46.3665" x2="31.5024" y2="49.7663" stroke="#00860B"/>
<line x1="31.5024" y1="16.2337" x2="31.5024" y2="19.6335" stroke="#00860B"/>
<line x1="35.5024" y1="46.3665" x2="35.5024" y2="49.7663" stroke="#00860B"/>
<line x1="34.5024" y1="16.2337" x2="34.5024" y2="19.6335" stroke="#00860B"/>
<line x1="15.8706" y1="30.9338" x2="19.2037" y2="30.9338" stroke="#00860B"/>
<line x1="15.8706" y1="32.7337" x2="19.1371" y2="32.7337" stroke="#00860B"/>
<line x1="15.8706" y1="34.5336" x2="19.2037" y2="34.5336" stroke="#00860B"/>
<line x1="46.9321" y1="30.9338" x2="50.2652" y2="30.9338" stroke="#00860B"/>
<line x1="47.0645" y1="32.7337" x2="50.2642" y2="32.7337" stroke="#00860B"/>
<line x1="46.9321" y1="34.5336" x2="50.2652" y2="34.5336" stroke="#00860B"/>
<rect x="0.5" y="0.5" width="65" height="65" rx="32.5" stroke="#00860B"/>
</svg>
