<svg width="66" height="66" viewBox="0 0 66 66" fill="none" xmlns="http://www.w3.org/2000/svg">
<path d="M28.75 34V38H26.75V40H29.75V42H31.75V40H33.75V42H35.75V39.949C37.718 39.7 39.25 38.034 39.25 36C39.25 34.68 38.6 33.516 37.61 32.787C38.3401 32.043 38.7494 31.0424 38.75 30C38.75 28.142 37.471 26.589 35.75 26.142V24H33.75V26H31.75V24H29.75V26H26.75V28H28.75V34ZM35.25 38H30.75V34H35.25C36.353 34 37.25 34.897 37.25 36C37.25 37.103 36.353 38 35.25 38ZM30.75 28H34.75C35.853 28 36.75 28.897 36.75 30C36.75 31.103 35.853 32 34.75 32H30.75V28Z" fill="#00860B"/>
<rect x="13.5" y="13.5" width="39" height="39" rx="19.5" stroke="#00860B"/>
<rect x="0.5" y="0.5" width="65" height="65" rx="32.5" stroke="#00860B"/>
</svg>
