<svg width="47" height="46" viewBox="0 0 47 46" fill="none" xmlns="http://www.w3.org/2000/svg">
<path d="M11.5034 22.499C11.5034 17.0806 11.5034 14.3714 13.1867 12.6882C14.87 11.0049 17.5791 11.0049 22.9975 11.0049H23.3629V11.3703C23.3629 16.7886 23.3629 19.4978 21.6796 21.1811C19.9964 22.8644 17.2872 22.8644 11.8688 22.8644H11.5034V22.499Z" fill="#00860B"/>
<path d="M11.5034 23.501C11.5034 28.9194 11.5034 31.6286 13.1867 33.3118C14.87 34.9951 17.5791 34.9951 22.9975 34.9951H23.3629V34.6297C23.3629 29.2114 23.3629 26.5022 21.6796 24.8189C19.9964 23.1356 17.2872 23.1356 11.8688 23.1356H11.5034V23.501Z" fill="#00860B"/>
<path d="M35.4961 22.499C35.4961 17.0806 35.4961 14.3714 33.8128 12.6882C32.1296 11.0049 29.4204 11.0049 24.002 11.0049H23.6366V11.3703C23.6366 16.7886 23.6366 19.4978 25.3199 21.1811C27.0031 22.8644 29.7123 22.8644 35.1307 22.8644H35.4961V22.499Z" fill="#00860B"/>
<path d="M35.4961 23.501C35.4961 28.9194 35.4961 31.6286 33.8128 33.3118C32.1296 34.9951 29.4204 34.9951 24.002 34.9951H23.6366V34.6297C23.6366 29.2114 23.6366 26.5022 25.3199 24.8189C27.0031 23.1356 29.7123 23.1356 35.1307 23.1356H35.4961V23.501Z" fill="#00860B"/>
<rect x="0.895588" y="0.395588" width="45.2088" height="45.2088" rx="22.6044" stroke="#00860B" stroke-width="0.791176"/>
</svg>
