<svg width="185" height="161" viewBox="0 0 185 161" fill="none" xmlns="http://www.w3.org/2000/svg">
<path d="M145.763 114.19V160H92.5M145.763 114.19L184.5 83M145.763 114.19H92.5M39.2368 114.19V160H92.5M39.2368 114.19L0.5 83M39.2368 114.19H92.5M92.5 114.19V160" stroke="#00860B"/>
<path d="M92.5404 2.34164C92.7136 1.93759 93.2864 1.93758 93.4596 2.34164L100.71 19.2585C100.928 19.7684 101.41 20.116 101.963 20.1623L120.523 21.7181C120.966 21.7552 121.144 22.3088 120.805 22.597L106.743 34.5717C106.314 34.937 106.126 35.5117 106.256 36.0598L110.484 53.899C110.586 54.3286 110.122 54.6697 109.742 54.4441L93.7664 44.9479C93.2941 44.6671 92.7059 44.6671 92.2336 44.9479L76.2575 54.4441L76.513 54.8739L76.2575 54.4441C75.878 54.6697 75.4137 54.3286 75.5155 53.899L79.7443 36.0598C79.8743 35.5117 79.6861 34.937 79.2573 34.5718L65.1946 22.597C64.8561 22.3088 65.034 21.7552 65.477 21.7181L84.037 20.1623C84.5898 20.116 85.0719 19.7684 85.2904 19.2585L92.5404 2.34164Z" stroke="#00860B"/>
<path d="M65.5369 54.4644C65.7059 54.049 66.2941 54.049 66.4631 54.4644L72.6452 69.6551C72.8572 70.1759 73.3426 70.5344 73.9027 70.5839L89.8152 71.9885C90.2509 72.027 90.4307 72.5668 90.1051 72.8588L77.977 83.7344C77.5724 84.0972 77.3957 84.6504 77.515 85.1806L81.1496 101.327C81.2472 101.761 80.7732 102.096 80.3965 101.861L66.7959 93.3473C66.309 93.0426 65.691 93.0426 65.2041 93.3473L51.6035 101.861C51.2268 102.096 50.7528 101.761 50.8504 101.327L54.485 85.1806C54.6043 84.6504 54.4276 84.0972 54.023 83.7344L41.8949 72.8588L41.5611 73.2311L41.8949 72.8588C41.5693 72.5668 41.7491 72.027 42.1848 71.9885L58.0973 70.5839C58.6574 70.5344 59.1428 70.1759 59.3548 69.6551L65.5369 54.4644Z" stroke="#00860B"/>
<path d="M120.537 54.4644C120.706 54.049 121.294 54.049 121.463 54.4644L127.645 69.6551C127.857 70.1759 128.343 70.5344 128.903 70.5839L144.815 71.9885C145.251 72.027 145.431 72.5668 145.105 72.8588L132.977 83.7344C132.572 84.0972 132.396 84.6504 132.515 85.1806L136.15 101.327C136.247 101.761 135.773 102.096 135.397 101.861L121.796 93.3473C121.309 93.0426 120.691 93.0426 120.204 93.3473L106.603 101.861C106.227 102.096 105.753 101.761 105.85 101.327L109.485 85.1806C109.604 84.6504 109.428 84.0972 109.023 83.7344L96.8949 72.8588L96.5611 73.2311L96.8949 72.8588C96.5693 72.5668 96.7491 72.027 97.1848 71.9885L113.097 70.5839C113.657 70.5344 114.143 70.1759 114.355 69.6551L120.537 54.4644Z" stroke="#00860B"/>
</svg>
