<svg width="66" height="66" viewBox="0 0 66 66" fill="none" xmlns="http://www.w3.org/2000/svg">
<path d="M42.1476 34.5805C46.5268 44.634 40.837 49.0491 37.4447 50H24.4927C14.1925 45.0658 21.0747 31.9592 25.8034 26.0227H36.4424L38.7553 28.3356M38.7553 32.8073L42.6873 28.8753L45.3857 30.4172L50.8596 24.9433M50.8596 24.9433V30.0317M50.8596 24.9433H45.8483M35.7828 21.8594C36.3482 21.3197 37.5897 20.6413 39.1316 19.4694C40.6736 18.2975 39.8255 16 38.1728 16H24.0639C22.7106 16 21.2617 17.3723 23.4821 19.4694L27.1829 21.8594M26.2655 26.0227H35.9798C37.1295 26.0227 38.0615 25.0907 38.0615 23.941C38.0615 22.7914 37.1295 21.8594 35.9798 21.8594H26.2655C25.1159 21.8594 24.1839 22.7914 24.1839 23.941C24.1839 25.0907 25.1159 26.0227 26.2655 26.0227Z" stroke="#00860B"/>
<path d="M31.2814 43.5868L31.8894 43.6V45.3185H31.2814V43.5868ZM31.3342 43.4678V35.0603L31.8366 34.9942V43.4943L31.3342 43.4678ZM31.2814 33.1831H31.8894V34.9545L31.2814 35.0206V33.1831ZM34.2028 36.3293C34.0795 36.1795 33.9252 36.0473 33.7402 35.9327C33.5639 35.8094 33.3656 35.7036 33.1453 35.6155C32.9338 35.5274 32.7002 35.4568 32.4447 35.404C32.1891 35.3511 31.9203 35.3247 31.6383 35.3247C30.8187 35.3247 30.215 35.4833 29.8272 35.8006C29.4483 36.109 29.2588 36.532 29.2588 37.0696C29.2588 37.4398 29.3513 37.7306 29.5364 37.9421C29.7215 38.1536 30.0035 38.3255 30.3824 38.4577C30.7702 38.5899 31.2681 38.7265 31.8762 38.8675C32.5372 39.0085 33.11 39.1759 33.5948 39.3698C34.0883 39.5637 34.4628 39.8281 34.7184 40.163C34.9828 40.489 35.115 40.9341 35.115 41.4981C35.115 41.93 35.0313 42.3045 34.8638 42.6218C34.7052 42.939 34.4716 43.2034 34.1632 43.4149C33.8635 43.6265 33.5066 43.7851 33.0924 43.8908C32.6782 43.9878 32.2243 44.0363 31.7308 44.0363C31.2549 44.0363 30.7922 43.9878 30.3428 43.8908C29.8933 43.7851 29.4703 43.6353 29.0737 43.4414C28.6859 43.2387 28.3158 42.9831 27.9633 42.6747L28.426 41.9211C28.5934 42.0974 28.7917 42.2649 29.0208 42.4235C29.2588 42.5733 29.5188 42.7099 29.8008 42.8333C30.0916 42.9567 30.4001 43.0536 30.7261 43.1241C31.061 43.1858 31.4047 43.2167 31.7573 43.2167C32.5064 43.2167 33.088 43.0801 33.5022 42.8068C33.9252 42.5336 34.1367 42.1283 34.1367 41.5907C34.1367 41.2029 34.031 40.8944 33.8195 40.6653C33.6168 40.4274 33.3039 40.2335 32.8809 40.0836C32.4579 39.9338 31.9335 39.7884 31.3078 39.6474C30.6556 39.4976 30.1048 39.3301 29.6554 39.1451C29.2147 38.96 28.8798 38.7176 28.6507 38.418C28.4215 38.1095 28.307 37.7042 28.307 37.2018C28.307 36.6202 28.448 36.131 28.73 35.7345C29.0208 35.3291 29.4174 35.025 29.9198 34.8223C30.4309 34.6108 31.0082 34.5051 31.6515 34.5051C32.0657 34.5051 32.4491 34.5491 32.8016 34.6372C33.1629 34.7166 33.4934 34.8355 33.793 34.9942C34.1015 35.1528 34.3879 35.3511 34.6523 35.589L34.2028 36.3293Z" fill="#00860B"/>
<rect x="0.5" y="0.5" width="65" height="65" rx="32.5" stroke="#00860B"/>
</svg>
