<svg width="47" height="46" viewBox="0 0 47 46" fill="none" xmlns="http://www.w3.org/2000/svg">
<g clip-path="url(#clip0_10_1172)">
<path d="M23.5 12.7529C26.8396 12.7529 27.2317 12.7678 28.5516 12.8273C29.7723 12.8819 30.4323 13.0854 30.874 13.259C31.4595 13.4873 31.8764 13.7553 32.313 14.1919C32.7497 14.6286 33.0226 15.0455 33.2459 15.631C33.4147 16.0726 33.6231 16.7326 33.6777 17.9534C33.7372 19.2733 33.7521 19.6653 33.7521 23.005C33.7521 26.3446 33.7372 26.7366 33.6777 28.0566C33.6231 29.2773 33.4196 29.9373 33.2459 30.3789C33.0177 30.9645 32.7497 31.3813 32.313 31.818C31.8764 32.2547 31.4595 32.5276 30.874 32.7509C30.4323 32.9196 29.7723 33.128 28.5516 33.1826C27.2317 33.2422 26.8396 33.257 23.5 33.257C20.1604 33.257 19.7684 33.2422 18.4484 33.1826C17.2277 33.128 16.5677 32.9246 16.126 32.7509C15.5405 32.5226 15.1237 32.2547 14.687 31.818C14.2503 31.3813 13.9774 30.9645 13.7541 30.3789C13.5854 29.9373 13.3769 29.2773 13.3224 28.0566C13.2628 26.7366 13.2479 26.3446 13.2479 23.005C13.2479 19.6653 13.2628 19.2733 13.3224 17.9534C13.3769 16.7326 13.5804 16.0726 13.7541 15.631C13.9823 15.0455 14.2503 14.6286 14.687 14.1919C15.1237 13.7553 15.5405 13.4823 16.126 13.259C16.5677 13.0903 17.2277 12.8819 18.4484 12.8273C19.7684 12.7628 20.1653 12.7529 23.5 12.7529ZM23.5 10.5C20.1058 10.5 19.679 10.5149 18.3442 10.5744C17.0143 10.634 16.1062 10.8474 15.3122 11.155C14.4885 11.4726 13.7938 11.9043 13.099 12.599C12.4043 13.2938 11.9776 13.9934 11.655 14.8122C11.3474 15.6062 11.134 16.5143 11.0744 17.8491C11.0149 19.179 11 19.6058 11 23C11 26.3942 11.0149 26.821 11.0744 28.1558C11.134 29.4857 11.3474 30.3938 11.655 31.1927C11.9726 32.0165 12.4043 32.7112 13.099 33.4059C13.7938 34.1006 14.4935 34.5274 15.3122 34.8499C16.1062 35.1576 17.0143 35.371 18.3492 35.4305C19.684 35.4901 20.1058 35.505 23.505 35.505C26.9041 35.505 27.3259 35.4901 28.6608 35.4305C29.9907 35.371 30.8988 35.1576 31.6977 34.8499C32.5215 34.5324 33.2162 34.1006 33.9109 33.4059C34.6056 32.7112 35.0324 32.0115 35.3549 31.1927C35.6626 30.3988 35.876 29.4907 35.9355 28.1558C35.9951 26.821 36.0099 26.3992 36.0099 23C36.0099 19.6008 35.9951 19.179 35.9355 17.8442C35.876 16.5143 35.6626 15.6062 35.3549 14.8073C35.0373 13.9835 34.6056 13.2888 33.9109 12.5941C33.2162 11.8994 32.5165 11.4726 31.6977 11.1501C30.9037 10.8424 29.9956 10.629 28.6608 10.5695C27.321 10.5149 26.8942 10.5 23.5 10.5Z" fill="#00860B"/>
<path d="M23.5 12.7529C26.8396 12.7529 27.2317 12.7678 28.5516 12.8273C29.7723 12.8819 30.4323 13.0854 30.874 13.259C31.4595 13.4873 31.8764 13.7553 32.313 14.1919C32.7497 14.6286 33.0226 15.0455 33.2459 15.631C33.4147 16.0726 33.6231 16.7326 33.6777 17.9534C33.7372 19.2733 33.7521 19.6653 33.7521 23.005C33.7521 26.3446 33.7372 26.7366 33.6777 28.0566C33.6231 29.2773 33.4196 29.9373 33.2459 30.3789C33.0177 30.9645 32.7497 31.3813 32.313 31.818C31.8764 32.2547 31.4595 32.5276 30.874 32.7509C30.4323 32.9196 29.7723 33.128 28.5516 33.1826C27.2317 33.2422 26.8396 33.257 23.5 33.257C20.1604 33.257 19.7684 33.2422 18.4484 33.1826C17.2277 33.128 16.5677 32.9246 16.126 32.7509C15.5405 32.5226 15.1237 32.2547 14.687 31.818C14.2503 31.3813 13.9774 30.9645 13.7541 30.3789C13.5854 29.9373 13.3769 29.2773 13.3224 28.0566C13.2628 26.7366 13.2479 26.3446 13.2479 23.005C13.2479 19.6653 13.2628 19.2733 13.3224 17.9534C13.3769 16.7326 13.5804 16.0726 13.7541 15.631C13.9823 15.0455 14.2503 14.6286 14.687 14.1919C15.1237 13.7553 15.5405 13.4823 16.126 13.259C16.5677 13.0903 17.2277 12.8819 18.4484 12.8273C19.7684 12.7628 20.1653 12.7529 23.5 12.7529Z" fill="#00860B"/>
<path d="M23.4998 16.5837C19.9567 16.5837 17.0786 19.4569 17.0786 23.0049C17.0786 26.553 19.9518 29.4261 23.4998 29.4261C27.0478 29.4261 29.921 26.553 29.921 23.0049C29.921 19.4569 27.0478 16.5837 23.4998 16.5837ZM23.4998 27.1683C21.1973 27.1683 19.3315 25.3025 19.3315 23C19.3315 20.6975 21.1973 18.8317 23.4998 18.8317C25.8023 18.8317 27.6681 20.6975 27.6681 23C27.6681 25.3025 25.8023 27.1683 23.4998 27.1683Z" fill="white"/>
<path d="M30.1744 17.8244C31.0021 17.8244 31.673 17.1534 31.673 16.3258C31.673 15.4981 31.0021 14.8271 30.1744 14.8271C29.3467 14.8271 28.6758 15.4981 28.6758 16.3258C28.6758 17.1534 29.3467 17.8244 30.1744 17.8244Z" fill="white"/>
</g>
<rect x="1" y="0.5" width="45" height="45" rx="22.5" stroke="#00860B"/>
<defs>
<clipPath id="clip0_10_1172">
<rect width="25" height="25" fill="white" transform="translate(11 10.5)"/>
</clipPath>
</defs>
</svg>
