<svg width="30" height="30" viewBox="0 0 30 30" fill="none" xmlns="http://www.w3.org/2000/svg">
<g clip-path="url(#clip0_10_1282)">
<path fill-rule="evenodd" clip-rule="evenodd" d="M12.1127 8.04168C12.8603 8.00834 13.0992 8 15 8C16.9008 8 17.1397 8.00834 17.89 8.0389C18.6376 8.07225 19.1461 8.19174 19.5907 8.36403C20.0492 8.54466 20.4411 8.78364 20.8301 9.17269C21.2191 9.56173 21.4609 9.95077 21.6388 10.4121C21.811 10.8595 21.9305 11.368 21.9639 12.1127C21.9972 12.8603 22.0056 13.0965 22.0056 15C22.0056 16.9035 21.9972 17.1397 21.9639 17.8873C21.9305 18.6348 21.811 19.1433 21.6388 19.5879C21.4581 20.0464 21.2191 20.4383 20.8301 20.8273C20.4411 21.2164 20.052 21.4581 19.5907 21.636C19.1433 21.8083 18.6348 21.9277 17.89 21.9611C17.1425 21.9944 16.9063 22.0028 15.0028 22.0028C13.0992 22.0028 12.863 21.9944 12.1155 21.9611C11.368 21.9277 10.8595 21.8083 10.4148 21.636C9.95633 21.4553 9.56451 21.2164 9.17547 20.8273C8.78642 20.4383 8.54466 20.0492 8.36681 19.5879C8.19452 19.1405 8.07503 18.632 8.04168 17.8873C8.00834 17.1397 8 16.9008 8 15C8 13.0992 8.00834 12.8603 8.04168 12.1155C8.07503 11.368 8.19452 10.8595 8.36681 10.4148C8.54744 9.95633 8.78642 9.56451 9.17547 9.17547C9.56451 8.78642 9.95355 8.54466 10.4148 8.36681C10.8595 8.19452 11.368 8.07503 12.1127 8.04168ZM18.7377 12.1018C19.2011 12.1018 19.5769 11.7261 19.5769 11.2626C19.5769 10.7991 19.2011 10.4233 18.7377 10.4233C18.2742 10.4233 17.8984 10.7991 17.8984 11.2626C17.8984 11.7261 18.2742 12.1018 18.7377 12.1018ZM15.0002 11.4067C13.016 11.4067 11.4043 13.0157 11.4043 15.0026C11.4043 16.9895 13.0133 18.5985 15.0002 18.5985C16.9871 18.5985 18.596 16.9895 18.596 15.0026C18.596 13.0157 16.9871 11.4067 15.0002 11.4067ZM15.0002 17.3341C13.7108 17.3341 12.6659 16.2892 12.6659 14.9998C12.6659 13.7104 13.7108 12.6656 15.0002 12.6656C16.2896 12.6656 17.3344 13.7104 17.3344 14.9998C17.3344 16.2892 16.2896 17.3341 15.0002 17.3341Z" fill="#00860B"/>
</g>
<rect x="0.5" y="0.5" width="29" height="29" rx="14.5" stroke="#00860B"/>
<defs>
<clipPath id="clip0_10_1282">
<rect width="14" height="14" fill="white" transform="translate(8 8)"/>
</clipPath>
</defs>
</svg>
