<svg width="24" height="24" viewBox="0 0 24 24" fill="none" xmlns="http://www.w3.org/2000/svg">
<path d="M11.9948 0.333252C5.56179 0.333252 0.328125 5.56692 0.328125 11.9999V16.8334C0.328125 18.0281 1.37462 18.9999 2.66146 18.9999H3.82812C4.13754 18.9999 4.43429 18.877 4.65308 18.6582C4.87187 18.4394 4.99479 18.1427 4.99479 17.8333V11.8331C4.99479 11.5237 4.87187 11.2269 4.65308 11.0081C4.43429 10.7893 4.13754 10.6664 3.82812 10.6664H2.76879C3.41746 6.15142 7.30246 2.66659 11.9948 2.66659C16.6871 2.66659 20.5721 6.15142 21.2208 10.6664H20.1615C19.852 10.6664 19.5553 10.7893 19.3365 11.0081C19.1177 11.2269 18.9948 11.5237 18.9948 11.8331V18.9999C18.9948 20.2868 17.9483 21.3333 16.6615 21.3333H14.3281V20.1666H9.66146V23.6666H16.6615C19.2351 23.6666 21.3281 21.5736 21.3281 18.9999C22.615 18.9999 23.6615 18.0281 23.6615 16.8334V11.9999C23.6615 5.56692 18.4278 0.333252 11.9948 0.333252Z" fill="#00860B"/>
</svg>
