<svg width="47" height="46" viewBox="0 0 47 46" fill="none" xmlns="http://www.w3.org/2000/svg">
<path fill-rule="evenodd" clip-rule="evenodd" d="M38.766 15.2189C38.9873 14.5169 38.766 14 37.706 14H34.2061C33.3155 14 32.9048 14.4461 32.6821 14.9386C32.6821 14.9386 30.9022 19.0477 28.3809 21.7169C27.5649 22.4909 27.1943 22.7364 26.7489 22.7364C26.5263 22.7364 26.1916 22.4909 26.1916 21.7876V15.2189C26.1916 14.3754 25.9463 14 25.205 14H19.7011C19.1451 14 18.8104 14.3909 18.8104 14.7624C18.8104 15.5609 20.0717 15.746 20.2011 17.9934V22.8766C20.2011 23.9476 19.9971 24.1417 19.5517 24.1417C18.3651 24.1417 15.4785 20.0133 13.7652 15.2896C13.4332 14.3703 13.0972 14 12.2026 14H8.69997C7.7 14 7.5 14.4461 7.5 14.9386C7.5 15.8154 8.68664 20.1714 13.0266 25.9327C15.9198 29.867 19.9931 32 23.7037 32C25.9289 32 26.2036 31.5269 26.2036 30.7104V27.7366C26.2036 26.789 26.4143 26.6 27.1196 26.6C27.6396 26.6 28.5289 26.8469 30.6062 28.7433C32.9795 30.992 33.3701 32 34.7061 32H38.206C39.206 32 39.7073 31.5269 39.4193 30.5909C39.102 29.66 37.9687 28.3087 36.4661 26.7054C35.6501 25.7926 34.4261 24.809 34.0541 24.3166C33.5355 23.6853 33.6835 23.4037 34.0541 22.8419C34.0541 22.8419 38.3207 17.1513 38.7647 15.2189H38.766Z" fill="#00860B"/>
<rect x="1" y="0.5" width="45" height="45" rx="22.5" stroke="#00860B"/>
</svg>
