<svg width="66" height="66" viewBox="0 0 66 66" fill="none" xmlns="http://www.w3.org/2000/svg">
<path d="M29.9666 16.0605C31.3368 13.7638 34.6632 13.7638 36.0334 16.0605L50.5831 40.4483C51.9878 42.8028 50.2913 45.7903 47.5497 45.7903H18.4503C15.7087 45.7903 14.0122 42.8028 15.4169 40.4483L29.9666 16.0605Z" stroke="#00860B"/>
<path d="M30.7616 21.9747C30.6454 20.6442 31.6941 19.5 33.0297 19.5C34.3474 19.5 35.3899 20.6152 35.3012 21.9299L34.3961 35.347C34.3523 35.996 33.8131 36.5 33.1627 36.5C32.5216 36.5 31.9869 36.0099 31.9311 35.3713L30.7616 21.9747Z" stroke="#00860B"/>
<circle cx="32.9975" cy="40.6452" r="1.91935" stroke="#00860B"/>
<rect x="0.5" y="0.5" width="65" height="65" rx="32.5" stroke="#00860B"/>
</svg>
