<svg width="46" height="46" viewBox="0 0 46 46" fill="none" xmlns="http://www.w3.org/2000/svg">
<path d="M35.9466 16.3666C35.6353 15.1847 34.7236 14.2527 33.5673 13.9345C31.4549 13.3435 23.0052 13.3435 23.0052 13.3435C23.0052 13.3435 14.5554 13.3435 12.443 13.9118C11.3089 14.23 10.375 15.1847 10.0637 16.3666C9.50781 18.526 9.50781 23.0039 9.50781 23.0039C9.50781 23.0039 9.50781 27.5045 10.0637 29.6411C10.375 30.8231 11.2867 31.755 12.443 32.0733C14.5777 32.6643 23.0052 32.6643 23.0052 32.6643C23.0052 32.6643 31.4549 32.6643 33.5673 32.096C34.7236 31.7778 35.6353 30.8458 35.9466 29.6639C36.5025 27.5045 36.5025 23.0266 36.5025 23.0266C36.5025 23.0266 36.5247 18.526 35.9466 16.3666Z" fill="#00860B"/>
<path d="M20.3125 27.1408L27.3391 23.0039L20.3125 18.8669V27.1408Z" fill="white"/>
<rect x="1" y="0.5" width="44" height="45" rx="22" stroke="#00860B"/>
</svg>
