<svg width="30" height="30" viewBox="0 0 30 30" fill="none" xmlns="http://www.w3.org/2000/svg">
<path fill-rule="evenodd" clip-rule="evenodd" d="M21.2602 9.36706C21.9456 9.56471 22.4859 10.1435 22.6704 10.8776C23.0131 12.2188 22.9999 15.0141 22.9999 15.0141C22.9999 15.0141 22.9999 17.7953 22.6704 19.1365C22.4859 19.8706 21.9456 20.4494 21.2602 20.6471C20.0082 21 15 21 15 21C15 21 10.0049 21 8.7397 20.6329C8.05436 20.4353 7.514 19.8565 7.32949 19.1224C7 17.7953 7 15 7 15C7 15 7 12.2188 7.32949 10.8776C7.514 10.1435 8.06754 9.55059 8.7397 9.35294C9.99175 9 15 9 15 9C15 9 20.0082 9 21.2602 9.36706ZM17.8875 15.0022L13.2031 17.7002V12.3042L17.8875 15.0022Z" fill="#00860B"/>
<rect x="0.5" y="0.5" width="29" height="29" rx="14.5" stroke="#00860B"/>
</svg>
